<svg xmlns="http://www.w3.org/2000/svg" viewBox="0 0 128 128" fill="currentColor">
  <path d="M64 0C28.65 0 0 28.65 0 64s28.65 64 64 64 64-28.65 64-64S99.35 0 64 0zm0 118.4c-30.03 0-54.4-24.37-54.4-54.4S33.97 9.6 64 9.6 118.4 33.97 118.4 64 94.03 118.4 64 118.4zm0-104.8c-27.78 0-50.4 22.62-50.4 50.4S36.22 114.4 64 114.4 114.4 91.78 114.4 64 91.78 13.6 64 13.6zm0 92.8c-23.4 0-42.4-19-42.4-42.4S40.6 21.6 64 21.6 106.4 40.6 106.4 64 87.4 106.4 64 106.4z"/>
  <path d="M64 32c-17.67 0-32 14.33-32 32s14.33 32 32 32 32-14.33 32-32-14.33-32-32-32zm0 56c-13.25 0-24-10.75-24-24s10.75-24 24-24 24 10.75 24 24-10.75 24-24 24z"/>
</svg>