<svg xmlns="http://www.w3.org/2000/svg" viewBox="0 0 100 100">
  <g fill="#000">
    <path d="M50 0C22.386 0 0 22.386 0 50s22.386 50 50 50 50-22.386 50-50S77.614 0 50 0zm0 95C26.748 95 5 73.252 5 50S26.748 5 50 5s45 21.748 45 45-21.748 45-45 45z"/>
    <path d="M50 10C29.5 10 10 29.5 10 50s19.5 40 40 40 40-19.5 40-40S70.5 10 50 10zm0 75c-19.3 0-35-15.7-35-35S30.7 15 50 15s35 15.7 35 35-15.7 35-35 35z"/>
    <path d="M50 20c-16.5 0-30 13.5-30 30s13.5 30 30 30 30-13.5 30-30-13.5-30-30-30zm0 55c-13.8 0-25-11.2-25-25s11.2-25 25-25 25 11.2 25 25-11.2 25-25 25z"/>
  </g>
</svg>